<svg id="visual" viewBox="0 0 900 600" width="900" height="600" xmlns="http://www.w3.org/2000/svg" xmlns:xlink="http://www.w3.org/1999/xlink" version="1.1"><path d="M0 109L13.7 113C27.3 117 54.7 125 82 130C109.3 135 136.7 137 163.8 153C191 169 218 199 245.2 212C272.3 225 299.7 221 327 222C354.3 223 381.7 229 409 233C436.3 237 463.7 239 491 221C518.3 203 545.7 165 573 156C600.3 147 627.7 167 654.8 180C682 193 709 199 736.2 192C763.3 185 790.7 165 818 149C845.3 133 872.7 121 886.3 115L900 109L900 0L886.3 0C872.7 0 845.3 0 818 0C790.7 0 763.3 0 736.2 0C709 0 682 0 654.8 0C627.7 0 600.3 0 573 0C545.7 0 518.3 0 491 0C463.7 0 436.3 0 409 0C381.7 0 354.3 0 327 0C299.7 0 272.3 0 245.2 0C218 0 191 0 163.8 0C136.7 0 109.3 0 82 0C54.7 0 27.3 0 13.7 0L0 0Z" fill="#6198ff"></path><path d="M0 211L13.7 222C27.3 233 54.7 255 82 259C109.3 263 136.7 249 163.8 253C191 257 218 279 245.2 300C272.3 321 299.7 341 327 352C354.3 363 381.7 365 409 367C436.3 369 463.7 371 491 354C518.3 337 545.7 301 573 278C600.3 255 627.7 245 654.8 264C682 283 709 331 736.2 328C763.3 325 790.7 271 818 245C845.3 219 872.7 221 886.3 222L900 223L900 107L886.3 113C872.7 119 845.3 131 818 147C790.7 163 763.3 183 736.2 190C709 197 682 191 654.8 178C627.7 165 600.3 145 573 154C545.7 163 518.3 201 491 219C463.7 237 436.3 235 409 231C381.7 227 354.3 221 327 220C299.7 219 272.3 223 245.2 210C218 197 191 167 163.8 151C136.7 135 109.3 133 82 128C54.7 123 27.3 115 13.7 111L0 107Z" fill="#3c80ff"></path><path d="M0 253L13.7 269C27.3 285 54.7 317 82 323C109.3 329 136.7 309 163.8 309C191 309 218 329 245.2 357C272.3 385 299.7 421 327 437C354.3 453 381.7 449 409 441C436.3 433 463.7 421 491 401C518.3 381 545.7 353 573 344C600.3 335 627.7 345 654.8 362C682 379 709 403 736.2 389C763.3 375 790.7 323 818 299C845.3 275 872.7 279 886.3 281L900 283L900 221L886.3 220C872.7 219 845.3 217 818 243C790.7 269 763.3 323 736.2 326C709 329 682 281 654.8 262C627.7 243 600.3 253 573 276C545.7 299 518.3 335 491 352C463.7 369 436.3 367 409 365C381.7 363 354.3 361 327 350C299.7 339 272.3 319 245.2 298C218 277 191 255 163.8 251C136.7 247 109.3 261 82 257C54.7 253 27.3 231 13.7 220L0 209Z" fill="#0066ff"></path><path d="M0 355L13.7 370C27.3 385 54.7 415 82 418C109.3 421 136.7 397 163.8 397C191 397 218 421 245.2 447C272.3 473 299.7 501 327 512C354.3 523 381.7 517 409 514C436.3 511 463.7 511 491 487C518.3 463 545.7 415 573 399C600.3 383 627.7 399 654.8 419C682 439 709 463 736.2 447C763.3 431 790.7 375 818 348C845.3 321 872.7 323 886.3 324L900 325L900 281L886.3 279C872.7 277 845.3 273 818 297C790.7 321 763.3 373 736.2 387C709 401 682 377 654.8 360C627.7 343 600.3 333 573 342C545.7 351 518.3 379 491 399C463.7 419 436.3 431 409 439C381.7 447 354.3 451 327 435C299.7 419 272.3 383 245.2 355C218 327 191 307 163.8 307C136.7 307 109.3 327 82 321C54.7 315 27.3 283 13.7 267L0 251Z" fill="#0059dd"></path><path d="M0 601L13.7 601C27.3 601 54.7 601 82 601C109.3 601 136.7 601 163.8 601C191 601 218 601 245.2 601C272.3 601 299.7 601 327 601C354.3 601 381.7 601 409 601C436.3 601 463.7 601 491 601C518.3 601 545.7 601 573 601C600.3 601 627.7 601 654.8 601C682 601 709 601 736.2 601C763.3 601 790.7 601 818 601C845.3 601 872.7 601 886.3 601L900 601L900 323L886.3 322C872.7 321 845.3 319 818 346C790.7 373 763.3 429 736.2 445C709 461 682 437 654.8 417C627.7 397 600.3 381 573 397C545.7 413 518.3 461 491 485C463.7 509 436.3 509 409 512C381.7 515 354.3 521 327 510C299.7 499 272.3 471 245.2 445C218 419 191 395 163.8 395C136.7 395 109.3 419 82 416C54.7 413 27.3 383 13.7 368L0 353Z" fill="#004cbb"></path></svg>